<?xml version="1.0" encoding="utf-8" standalone="yes"?>
<!DOCTYPE svg PUBLIC "-//W3C//DTD SVG 1.1//EN" "http://www.w3.org/Graphics/SVG/1.1/DTD/svg11.dtd">
<svg width="1104" height="540" viewBox="0 0 1104 540" style="fill:none;stroke:none;fill-rule:evenodd;clip-rule:evenodd;stroke-linecap:round;stroke-linejoin:round;stroke-miterlimit:1.5;" version="1.1" xmlns="http://www.w3.org/2000/svg" xmlns:xlink="http://www.w3.org/1999/xlink"><style class="text-font-style fontImports" data-font-family="Roboto">@import url('https://fonts.googleapis.com/css2?family=Roboto:wght@400;700&amp;display=block');</style><g id="items" style="isolation: isolate"><g id="blend" style="mix-blend-mode: normal"><g id="g-root-6.g-6_fr_zk2q541dgdgcp-fill" data-item-order="-557270" transform="translate(863, 74)"><g id="6.g-6_fr_zk2q541dgdgcp-fill" stroke="none" fill="#faf0ff"><g><path d="M 136.5037 52C 138.1093 48.3252 139 44.2666 139 40C 139 35.7334 138.1093 31.6748 136.5037 28L 157 28L 157 27C 157 25.8954 157.895 25 159 25L 163 25L 163 55L 159 55C 157.895 55 157 54.1046 157 53L 157 52L 136.5037 52ZM 81.4963 52L 61 52L 61 53C 61 54.1046 60.1046 55 59 55L 55 55L 55 25L 59 25C 60.1046 25 61 25.8954 61 27L 61 28L 81.4963 28C 79.8907 31.6748 79 35.7334 79 40C 79 44.2666 79.8907 48.3252 81.4963 52Z"></path></g></g><g id="6.g-6_fr_zk2q541dgdgcp-fill" stroke="none" fill="#faf0ff"><g><path d="M 10 130L 10 126C 10 124.8954 10.8954 124 12 124L 13 124L 13 76L 12 76C 10.8954 76 10.000002 75.1046 10.000002 74L 10.000003 70L 40 70.000001L 40 74C 40 75.1046 39.1046 76 38 76L 37 76L 37 124L 38 124C 39.1046 124 40 124.8954 40 126L 40 130L 10 130Z"></path></g></g><g id="6.g-6_fr_zk2q541dgdgcp-fill" stroke="none" fill="#faf0ff"><g><path d="M 13 52C 13 38.7452 23.7452 28 37 28L 49 28L 49 27C 49 25.8954 49.8954 25 51 25L 55 25L 55 55L 51 55C 49.8954 55 49 54.1046 49 53L 49 52L 41 52C 38.7909 52 37 53.7909 37 56L 37 64L 38 64C 39.1046 64 40 64.8954 40 66L 40 70L 10 70L 10 66C 10 64.8954 10.8954 64 12 64L 13 64L 13 52Z"></path></g></g><g id="6.g-6_fr_zk2q541dgdgcp-fill" stroke="none" fill="#faf0ff"><g><path d="M 139 40C 139 56.5685 125.5685 70 109 70C 92.4315 70 79 56.5685 79 40C 79 23.4315 92.4315 10 109 10C 125.5685 10 139 23.4315 139 40Z"></path></g></g></g><g id="g-root-5.g-5_fr_v4980o1dgdh52-fill" data-item-order="-557266" transform="translate(695, 194)"><g id="5.g-5_fr_v4980o1dgdh52-fill" stroke="none" fill="#ffebf7"><g><path d="M 136.5037 112C 138.1093 108.3252 139 104.2666 139 100C 139 95.7334 138.1093 91.6748 136.5037 88L 157 88L 157 87C 157 85.8954 157.895 85 159 85L 163 85L 163 115L 159 115C 157.895 115 157 114.1046 157 113L 157 112L 136.5037 112ZM 81.4963 112L 61 112L 61 113C 61 114.1046 60.1046 115 59 115L 55 115L 55 85L 59 85C 60.1046 85 61 85.8954 61 87L 61 88L 81.4963 88C 79.8907 91.6748 79 95.7334 79 100C 79 104.2666 79.8907 108.3252 81.4963 112Z"></path></g></g><g id="5.g-5_fr_v4980o1dgdh52-fill" stroke="none" fill="#ffebf7"><g><path d="M 10 70L 10 66C 10 64.8954 10.8954 64 12 64L 13 64L 13 46L 12 46C 10.8954 46 10.000001 45.1046 10.000001 44L 10.000001 40L 40 40.000001L 40 44C 40 45.1046 39.1046 46 38 46L 37 46L 37 64L 38 64C 39.1046 64 40 64.8954 40 66L 40 70L 10 70Z"></path></g></g><g id="5.g-5_fr_v4980o1dgdh52-fill" stroke="none" fill="#ffebf7"><g><path d="M 178 70L 178 66C 178 64.8954 178.8954 64 180 64L 181 64L 181 16L 180 16C 178.8954 16 178.000002 15.1046 178.000002 14L 178.000003 10L 208 10.000001L 208 14C 208 15.1046 207.1046 16 206 16L 205 16L 205 64L 206 64C 207.1046 64 208 64.8954 208 66L 208 70L 178 70Z"></path></g></g><g id="5.g-5_fr_v4980o1dgdh52-fill" stroke="none" fill="#ffebf7"><g><path d="M 13 88C 13 101.2548 23.7452 112 37 112L 49 112L 49 113C 49 114.1046 49.8954 115 51 115L 55 115L 55 85L 51 85C 49.8954 85 49 85.8954 49 87L 49 88L 41 88C 38.7909 88 37 86.2091 37 84L 37 76L 38 76C 39.1046 76 40 75.1046 40 74L 40 70L 10 70.000005L 10.000001 74C 10.000001 75.1046 10.8954 76 12 76L 13 76L 13 88Z"></path></g></g><g id="5.g-5_fr_v4980o1dgdh52-fill" stroke="none" fill="#ffebf7"><g><path d="M 205 88C 205 101.2548 194.2548 112 181 112L 169 112L 169 113C 169 114.1046 168.1046 115 167 115L 163 115L 163.000007 85L 167 85C 168.1046 85 169 85.8954 169 87L 169 88L 177 88C 179.2091 88 181 86.2091 181 84L 181 76L 180 76C 178.8954 76 178 75.1046 178 74L 178 70L 208 70.000005L 208 74C 208 75.1046 207.1046 76 206 76L 205 76L 205 88Z"></path></g></g><g id="5.g-5_fr_v4980o1dgdh52-fill" stroke="none" fill="#ffebf7"><g><path d="M 139 100C 139 116.5685 125.5685 130 109 130C 92.4315 130 79 116.5685 79 100C 79 83.4315 92.4315 70 109 70C 125.5685 70 139 83.4315 139 100Z"></path></g></g></g><g id="g-root-4.g-4_fr_htf6qg1dgdfkd-fill" data-item-order="-557262" transform="translate(527, 134)"><g id="4.g-4_fr_htf6qg1dgdfkd-fill" stroke="none" fill="#e8f9ff"><g><path d="M 136.5037 52C 138.1093 48.3252 139 44.2666 139 40C 139 35.7334 138.1093 31.6748 136.5037 28L 157 28L 157 27C 157 25.8954 157.895 25 159 25L 163 25L 163 55L 159 55C 157.895 55 157 54.1046 157 53L 157 52L 136.5037 52ZM 81.4963 52L 61 52L 61 53C 61 54.1046 60.1046 55 59 55L 55 55L 55 25L 59 25C 60.1046 25 61 25.8954 61 27L 61 28L 81.4963 28C 79.8907 31.6748 79 35.7334 79 40C 79 44.2666 79.8907 48.3252 81.4963 52Z"></path></g></g><g id="4.g-4_fr_htf6qg1dgdfkd-fill" stroke="none" fill="#e8f9ff"><g><path d="M 178 100L 178 96C 178 94.8954 178.8954 94 180 94L 181 94L 181 76L 180 76C 178.8954 76 178.000001 75.1046 178.000001 74L 178.000001 70L 208 70.000001L 208 74C 208 75.1046 207.1046 76 206 76L 205 76L 205 94L 206 94C 207.1046 94 208 94.8954 208 96L 208 100L 178 100Z"></path></g></g><g id="4.g-4_fr_htf6qg1dgdfkd-fill" stroke="none" fill="#e8f9ff"><g><path d="M 13 52C 13 38.7452 23.7452 28 37 28L 49 28L 49 27C 49 25.8954 49.8954 25 51 25L 55 25L 55 55L 51 55C 49.8954 55 49 54.1046 49 53L 49 52L 41 52C 38.7909 52 37 53.7909 37 56L 37 64L 38 64C 39.1046 64 40 64.8954 40 66L 40 70L 10 70L 10 66C 10 64.8954 10.8954 64 12 64L 13 64L 13 52Z"></path></g></g><g id="4.g-4_fr_htf6qg1dgdfkd-fill" stroke="none" fill="#e8f9ff"><g><path d="M 205 52C 205 38.7452 194.2548 28 181 28L 169 28L 169 27C 169 25.8954 168.1046 25 167 25L 163 25L 163.000001 55L 167 55C 168.1046 55 169 54.1046 169 53L 169 52L 177 52C 179.2091 52 181 53.7909 181 56L 181 64L 180 64C 178.8954 64 178 64.8954 178 66L 178 70L 208 70L 208 66C 208 64.8954 207.1046 64 206 64L 205 64L 205 52Z"></path></g></g><g id="4.g-4_fr_htf6qg1dgdfkd-fill" stroke="none" fill="#e8f9ff"><g><path d="M 139 40C 139 56.5685 125.5685 70 109 70C 92.4315 70 79 56.5685 79 40C 79 23.4315 92.4315 10 109 10C 125.5685 10 139 23.4315 139 40Z"></path></g></g></g><g id="g-root-3.g-3_fr_8xs6hk1dgdh4z-fill" data-item-order="-557258" transform="translate(359, 164)"><g id="3.g-3_fr_8xs6hk1dgdh4z-fill" stroke="none" fill="#f4ffdc"><g><path d="M 136.5037 82C 138.1093 78.3252 139 74.2666 139 70C 139 65.7334 138.1093 61.6748 136.5037 58L 157 58L 157 57C 157 55.8954 157.895 55 159 55L 163 55L 163 85L 159 85C 157.895 85 157 84.1046 157 83L 157 82L 136.5037 82ZM 81.4963 82L 61 82L 61 83C 61 84.1046 60.1046 85 59 85L 55 85L 55 55L 59 55C 60.1046 55 61 55.8954 61 57L 61 58L 81.4963 58C 79.8907 61.6748 79 65.7334 79 70C 79 74.2666 79.8907 78.3252 81.4963 82Z"></path></g></g><g id="3.g-3_fr_8xs6hk1dgdh4z-fill" stroke="none" fill="#f4ffdc"><g><path d="M 10 40L 10 36C 10 34.8954 10.8954 34 12 34L 13 34L 13 16L 12 16C 10.8954 16 10.000001 15.1046 10.000001 14L 10.000001 10L 40 10.000001L 40 14C 40 15.1046 39.1046 16 38 16L 37 16L 37 34L 38 34C 39.1046 34 40 34.8954 40 36L 40 40L 10 40Z"></path></g></g><g id="3.g-3_fr_8xs6hk1dgdh4z-fill" stroke="none" fill="#f4ffdc"><g><path d="M 205 58C 205 71.2548 194.2548 82 181 82L 169 82L 169 83C 169 84.1046 168.1046 85 167 85L 163 85L 163.000007 55L 167 55C 168.1046 55 169 55.8954 169 57L 169 58L 177 58C 179.2091 58 181 56.2091 181 54L 181 46L 180 46C 178.8954 46 178 45.1046 178 44L 178 40L 208 40.000005L 208 44C 208 45.1046 207.1046 46 206 46L 205 46L 205 58Z"></path></g></g><g id="3.g-3_fr_8xs6hk1dgdh4z-fill" stroke="none" fill="#f4ffdc"><g><path d="M 13 58C 13 71.2548 23.7452 82 37 82L 49 82L 49 83C 49 84.1046 49.8954 85 51 85L 55 85L 55 55L 51 55C 49.8954 55 49 55.8954 49 57L 49 58L 41 58C 38.7909 58 37 56.2091 37 54L 37 46L 38 46C 39.1046 46 40 45.1046 40 44L 40 40L 10 40.000005L 10.000001 44C 10.000001 45.1046 10.8954 46 12 46L 13 46L 13 58Z"></path></g></g><g id="3.g-3_fr_8xs6hk1dgdh4z-fill" stroke="none" fill="#f4ffdc"><g><path d="M 139 70C 139 86.5685 125.5685 100 109 100C 92.4315 100 79 86.5685 79 70C 79 53.4315 92.4315 40 109 40C 125.5685 40 139 53.4315 139 70Z"></path></g></g></g><g id="g-root-2.g-2_fr_4il5g81dgderl-fill" data-item-order="-557254" transform="translate(191, 74)"><g id="2.g-2_fr_4il5g81dgderl-fill" stroke="none" fill="#e3fff2"><g><path d="M 136.5037 52C 138.1093 48.3252 139 44.2666 139 40C 139 35.7334 138.1093 31.6748 136.5037 28L 157 28L 157 27C 157 25.8954 157.895 25 159 25L 163 25L 163 55L 159 55C 157.895 55 157 54.1046 157 53L 157 52L 136.5037 52ZM 81.4963 52L 61 52L 61 53C 61 54.1046 60.1046 55 59 55L 55 55L 55 25L 59 25C 60.1046 25 61 25.8954 61 27L 61 28L 81.4963 28C 79.8907 31.6748 79 35.7334 79 40C 79 44.2666 79.8907 48.3252 81.4963 52Z"></path></g></g><g id="2.g-2_fr_4il5g81dgderl-fill" stroke="none" fill="#e3fff2"><g><path d="M 178 100L 178 96C 178 94.8954 178.8954 94 180 94L 181 94L 181 76L 180 76C 178.8954 76 178.000001 75.1046 178.000001 74L 178.000001 70L 208 70.000001L 208 74C 208 75.1046 207.1046 76 206 76L 205 76L 205 94L 206 94C 207.1046 94 208 94.8954 208 96L 208 100L 178 100Z"></path></g></g><g id="2.g-2_fr_4il5g81dgderl-fill" stroke="none" fill="#e3fff2"><g><path d="M 10 130L 10 126C 10 124.8954 10.8954 124 12 124L 13 124L 13 76L 12 76C 10.8954 76 10.000002 75.1046 10.000002 74L 10.000003 70L 40 70.000001L 40 74C 40 75.1046 39.1046 76 38 76L 37 76L 37 124L 38 124C 39.1046 124 40 124.8954 40 126L 40 130L 10 130Z"></path></g></g><g id="2.g-2_fr_4il5g81dgderl-fill" stroke="none" fill="#e3fff2"><g><path d="M 205 52C 205 38.7452 194.2548 28 181 28L 169 28L 169 27C 169 25.8954 168.1046 25 167 25L 163 25L 163.000001 55L 167 55C 168.1046 55 169 54.1046 169 53L 169 52L 177 52C 179.2091 52 181 53.7909 181 56L 181 64L 180 64C 178.8954 64 178 64.8954 178 66L 178 70L 208 70L 208 66C 208 64.8954 207.1046 64 206 64L 205 64L 205 52Z"></path></g></g><g id="2.g-2_fr_4il5g81dgderl-fill" stroke="none" fill="#e3fff2"><g><path d="M 13 52C 13 38.7452 23.7452 28 37 28L 49 28L 49 27C 49 25.8954 49.8954 25 51 25L 55 25L 55 55L 51 55C 49.8954 55 49 54.1046 49 53L 49 52L 41 52C 38.7909 52 37 53.7909 37 56L 37 64L 38 64C 39.1046 64 40 64.8954 40 66L 40 70L 10 70L 10 66C 10 64.8954 10.8954 64 12 64L 13 64L 13 52Z"></path></g></g><g id="2.g-2_fr_4il5g81dgderl-fill" stroke="none" fill="#e3fff2"><g><path d="M 139 40C 139 56.5685 125.5685 70 109 70C 92.4315 70 79 56.5685 79 40C 79 23.4315 92.4315 10 109 10C 125.5685 10 139 23.4315 139 40Z"></path></g></g></g><g id="g-root-1.g-1_fr_1q88p201dgdg5k-fill" data-item-order="-557250" transform="translate(68, 194)"><g id="1.g-1_fr_1q88p201dgdg5k-fill" stroke="none" fill="#edf4ff"><g><path d="M 133 69.999999L 133 65.999999C 133 64.895399 133.8954 63.999999 135 63.999999L 136 63.999999L 136 15.999999L 135 15.999999C 133.8954 15.999999 133.000002 15.104599 133.000002 13.999999L 133.000003 9.999999L 163 10L 163 13.999999C 163 15.104599 162.1046 15.999999 161 15.999999L 160 15.999999L 160 63.999999L 161 63.999999C 162.1046 63.999999 163 64.895399 163 65.999999L 163 69.999999L 133 69.999999Z"></path></g></g><g id="1.g-1_fr_1q88p201dgdg5k-fill" stroke="none" fill="#edf4ff"><g><path d="M 91.5037 112C 93.1093 108.3252 94 104.2666 94 100C 94 95.7334 93.1093 91.6748 91.5037 88L 112 88L 112 87C 112 85.8954 112.895 85 114 85L 118 85L 118 115L 114 115C 112.895 115 112 114.1046 112 113L 112 112L 91.5037 112ZM 36.4963 112L 16 112L 16 113C 16 114.1046 15.1046 115 14 115L 10 115L 10 85L 14 85C 15.1046 85 16 85.8954 16 87L 16 88L 36.4963 88C 34.8907 91.6748 34 95.7334 34 100C 34 104.2666 34.8907 108.3252 36.4963 112Z"></path></g></g><g id="1.g-1_fr_1q88p201dgdg5k-fill" stroke="none" fill="#edf4ff"><g><path d="M 160 88.000004C 160 101.254804 149.2548 112.000004 136 112.000004L 124 112.000004L 124 113.000004C 124 114.104604 123.1046 115.000004 122 115.000004L 118 115.000004L 118.000007 85.000004L 122 85.000004C 123.1046 85.000004 124 85.895404 124 87.000004L 124 88.000004L 132 88.000004C 134.2091 88.000004 136 86.209104 136 84.000004L 136 76.000004L 135 76.000004C 133.8954 76.000004 133 75.104604 133 74.000004L 133 70.000004L 163 70.000009L 163 74.000004C 163 75.104604 162.1046 76.000004 161 76.000004L 160 76.000004L 160 88.000004Z"></path></g></g><g id="1.g-1_fr_1q88p201dgdg5k-fill" stroke="none" fill="#edf4ff"><g><path d="M 94 100C 94 116.5685 80.5685 130 64 130C 47.4315 130 34 116.5685 34 100C 34 83.4315 47.4315 70 64 70C 80.5685 70 94 83.4315 94 100Z"></path></g></g></g><g id="g-root-bloc_i093a01dq8utj-fill" data-item-order="0" transform="translate(608, 146)"></g><g id="g-root-mail_zly5eg1dgdg5q-fill" data-item-order="0" transform="translate(944, 86)"></g><g id="g-root-warn_m97dg81dqa9s1-fill" data-item-order="0" transform="translate(272, 86)"></g><g id="g-root-1_1lz93h41dq8veo-fill" data-item-order="0" transform="translate(440, 206)"></g><g id="g-root-tx_communic_1cws6oo1dgdhql-fill" data-item-order="0" transform="translate(398, 2)"><g id="tx_communic_1cws6oo1dgdhql-fill" stroke="none" fill="#484848"><g><text style="font: 20px Roboto, sans-serif; white-space: pre;" font-size="20px" font-family="Roboto, sans-serif"><tspan x="13.24" y="34" dominant-baseline="ideographic">Communication Flow Sequence</tspan></text></g></g></g><g id="g-root-smar_zisgk81dqbmkq-fill" data-item-order="0" transform="translate(104, 266)"></g><g id="g-root-48px_i093a01dqbll9-fill" data-item-order="0" transform="translate(104, 326)"></g><g id="g-root-48px_1q6bye01dqd24o-fill" data-item-order="0" transform="translate(272, 326)"></g><g id="g-root-48px_1cwqva01dqd2pv-fill" data-item-order="0" transform="translate(440, 326)"></g><g id="g-root-48px_qs59081dqd0xy-fill" data-item-order="0" transform="translate(608, 326)"></g><g id="g-root-48px_144upjs1dqd1j5-fill" data-item-order="0" transform="translate(776, 326)"></g><g id="g-root-48px_4oskwo1dqd1c4-fill" data-item-order="0" transform="translate(944.5, 326)"></g><g id="g-root-tx_mcpclien_18mjmxk1dqbll7-fill" data-item-order="0" transform="translate(50, 374)"><g id="tx_mcpclien_18mjmxk1dqbll7-fill" stroke="none" fill="#4e88e7"><g><text style="font: bold 20px Roboto, sans-serif; white-space: pre;" font-weight="bold" font-size="20px" font-family="Roboto, sans-serif"><tspan x="25.53" y="34" dominant-baseline="ideographic">MCP Client </tspan><tspan x="12.47" y="58" dominant-baseline="ideographic">sends request</tspan></text></g></g></g><g id="g-root-tx_mcpserve_v2yyfs1dqd0qu-fill" data-item-order="0" transform="translate(218, 374)"><g id="tx_mcpserve_v2yyfs1dqd0qu-fill" stroke="none" fill="#3cc583"><g><text style="font: bold 20px Roboto, sans-serif; white-space: pre;" font-weight="bold" font-size="20px" font-family="Roboto, sans-serif"><tspan x="22.4" y="34" dominant-baseline="ideographic">MCP Server </tspan><tspan x="14.54" y="58" dominant-baseline="ideographic">authenticates</tspan></text></g></g></g><g id="g-root-tx_mcpserve_4hxcyg1dqd2wx-fill" data-item-order="0" transform="translate(386, 374)"><g id="tx_mcpserve_4hxcyg1dqd2wx-fill" stroke="none" fill="#92bd39"><g><text style="font: bold 20px Roboto, sans-serif; white-space: pre;" font-weight="bold" font-size="20px" font-family="Roboto, sans-serif"><tspan x="22.4" y="34" dominant-baseline="ideographic">MCP Server </tspan><tspan x="14.52" y="58" dominant-baseline="ideographic">executes SQL</tspan></text></g></g></g><g id="g-root-tx_snowflak_1hefsns1dqd0xw-fill" data-item-order="0" transform="translate(554, 374)"><g id="tx_snowflak_1hefsns1dqd0xw-fill" stroke="none" fill="#1eabda"><g><text style="font: bold 20px Roboto, sans-serif; white-space: pre;" font-weight="bold" font-size="20px" font-family="Roboto, sans-serif"><tspan x="35.13" y="34" dominant-baseline="ideographic">Snowflake </tspan><tspan x="16.28" y="58" dominant-baseline="ideographic">returns results</tspan></text></g></g></g><g id="g-root-tx_mcpserve_1qbbr2w1dqd1jj-fill" data-item-order="0" transform="translate(722, 374)"><g id="tx_mcpserve_1qbbr2w1dqd1jj-fill" stroke="none" fill="#de58a9"><g><text style="font: bold 20px Roboto, sans-serif; white-space: pre;" font-weight="bold" font-size="20px" font-family="Roboto, sans-serif"><tspan x="28.39" y="34" dominant-baseline="ideographic">MCP Server </tspan><tspan x="13.22" y="58" dominant-baseline="ideographic">formats results</tspan></text></g></g></g><g id="g-root-tx_mcpserve_zqwmoo1dqd0ju-fill" data-item-order="0" transform="translate(890, 374)"><g id="tx_mcpserve_zqwmoo1dqd0ju-fill" stroke="none" fill="#ba5de5"><g><text style="font: bold 20px Roboto, sans-serif; white-space: pre;" font-weight="bold" font-size="20px" font-family="Roboto, sans-serif"><tspan x="22.4" y="34" dominant-baseline="ideographic">MCP Server </tspan><tspan x="15.73" y="58" dominant-baseline="ideographic">sends results</tspan></text></g></g></g><g id="g-root-tx_theclien_vb34k81dqbn64-fill" data-item-order="0" transform="translate(50, 434)"><g id="tx_theclien_vb34k81dqbn64-fill" stroke="none" fill="#484848"><g><text style="font: 15px Roboto, sans-serif; white-space: pre;" font-size="15px" font-family="Roboto, sans-serif"><tspan x="13.58" y="31" dominant-baseline="ideographic">The client initiates a </tspan><tspan x="34.33" y="49" dominant-baseline="ideographic">request to the </tspan><tspan x="58.33" y="67" dominant-baseline="ideographic">server.</tspan></text></g></g></g><g id="g-root-tx_theserve_hrig2g1dqd2br-fill" data-item-order="0" transform="translate(218, 434)"><g id="tx_theserve_hrig2g1dqd2br-fill" stroke="none" fill="#484848"><g><text style="font: 15px Roboto, sans-serif; white-space: pre;" font-size="15px" font-family="Roboto, sans-serif"><tspan x="13.34" y="31" dominant-baseline="ideographic">The server verifies </tspan><tspan x="21.45" y="49" dominant-baseline="ideographic">credentials with </tspan><tspan x="37.6" y="67" dominant-baseline="ideographic">Snowflake.</tspan></text></g></g></g><g id="g-root-tx_theserve_1q87dnc1dqd14y-fill" data-item-order="0" transform="translate(386, 434)"><g id="tx_theserve_1q87dnc1dqd14y-fill" stroke="none" fill="#484848"><g><text style="font: 15px Roboto, sans-serif; white-space: pre;" font-size="15px" font-family="Roboto, sans-serif"><tspan x="13.46" y="31" dominant-baseline="ideographic">The server runs SQL </tspan><tspan x="45.66" y="49" dominant-baseline="ideographic">queries on </tspan><tspan x="44.01" y="67" dominant-baseline="ideographic">Snowflake.</tspan></text></g></g></g><g id="g-root-tx_snowflak_18issew1dqd1ql-fill" data-item-order="0" transform="translate(554, 434)"><g id="tx_snowflak_18issew1dqd1ql-fill" stroke="none" fill="#484848"><g><text style="font: 15px Roboto, sans-serif; white-space: pre;" font-size="15px" font-family="Roboto, sans-serif"><tspan x="12.03" y="28" dominant-baseline="ideographic">Snowflake sends the </tspan><tspan x="18.11" y="46" dominant-baseline="ideographic">query results back.</tspan></text></g></g></g><g id="g-root-tx_theserve_18ko7o81dqd0qw-fill" data-item-order="0" transform="translate(722, 434)"><g id="tx_theserve_18ko7o81dqd0qw-fill" stroke="none" fill="#484848"><g><text style="font: 15px Roboto, sans-serif; white-space: pre;" font-size="15px" font-family="Roboto, sans-serif"><tspan x="13.99" y="31" dominant-baseline="ideographic">The server prepares </tspan><tspan x="29.15" y="49" dominant-baseline="ideographic">the data for the </tspan><tspan x="60.01" y="67" dominant-baseline="ideographic">client.</tspan></text></g></g></g><g id="g-root-tx_theserve_mfg4bc1dqd24r-fill" data-item-order="0" transform="translate(890, 434)"><g id="tx_theserve_mfg4bc1dqd24r-fill" stroke="none" fill="#484848"><g><text style="font: 15px Roboto, sans-serif; white-space: pre;" font-size="15px" font-family="Roboto, sans-serif"><tspan x="18.85" y="31" dominant-baseline="ideographic">The server delivers </tspan><tspan x="35.93" y="49" dominant-baseline="ideographic">the formatted </tspan><tspan x="16.02" y="67" dominant-baseline="ideographic">results to the client.</tspan></text></g></g></g><g id="g-root-6.g-6_fr_zk2q541dgdgcp-stroke" data-item-order="-557270" transform="translate(863, 74)"><g id="6.g-6_fr_zk2q541dgdgcp-stroke" fill="none" stroke-linecap="round" stroke-linejoin="round" stroke-miterlimit="4" stroke="#ba5de5" stroke-width="2"><g><path d="M 136.5037 52C 138.1093 48.3252 139 44.2666 139 40C 139 35.7334 138.1093 31.6748 136.5037 28L 157 28L 157 27C 157 25.8954 157.8954 25 159 25L 163 25L 163 55L 159 55C 157.8954 55 157 54.1046 157 53L 157 52L 136.5037 52ZM 81.4963 52L 61 52L 61 53C 61 54.1046 60.1046 55 59 55L 55 55L 55 25L 59 25C 60.1046 25 61 25.8954 61 27L 61 28L 81.4963 28C 79.8907 31.6748 79 35.7334 79 40C 79 44.2666 79.8907 48.3252 81.4963 52ZM 157 28L 157 52M 61 52L 61 28"></path></g></g><g id="6.g-6_fr_zk2q541dgdgcp-stroke" fill="none" stroke-linecap="round" stroke-linejoin="round" stroke-miterlimit="4" stroke="#ba5de5" stroke-width="2"><g><path d="M 10 130L 10 126C 10 124.8954 10.8954 124 12 124L 13 124L 13 76L 12 76C 10.8954 76 10 75.1046 10 74L 10 70L 40 70L 40 74C 40 75.1046 39.1046 76 38 76L 37 76L 37 124L 38 124C 39.1046 124 40 124.8954 40 126L 40 130L 10 130ZM 13 124L 37 124M 13 76L 37 76"></path></g></g><g id="6.g-6_fr_zk2q541dgdgcp-stroke" fill="none" stroke-linecap="round" stroke-linejoin="round" stroke-miterlimit="4" stroke="#ba5de5" stroke-width="2"><g><path d="M 13 52C 13 38.7452 23.7452 28 37 28L 49 28L 49 27C 49 25.8954 49.8954 25 51 25L 55 25L 55 55L 51 55C 49.8954 55 49 54.1046 49 53L 49 52L 41 52C 38.7909 52 37 53.7909 37 56L 37 64L 38 64C 39.1046 64 40 64.8954 40 66L 40 70L 10 70L 10 66C 10 64.8954 10.8954 64 12 64L 13 64L 13 52ZM 49 28L 49 52M 37 64L 13 64"></path></g></g><g id="6.g-6_fr_zk2q541dgdgcp-stroke" fill="none" stroke-linecap="round" stroke-linejoin="round" stroke-miterlimit="4" stroke="#ba5de5" stroke-width="2"><g><path d="M 139 40C 139 56.5685 125.5685 70 109 70C 92.4315 70 79 56.5685 79 40C 79 23.4315 92.4315 10 109 10C 125.5685 10 139 23.4315 139 40Z"></path></g></g></g><g id="g-root-5.g-5_fr_v4980o1dgdh52-stroke" data-item-order="-557266" transform="translate(695, 194)"><g id="5.g-5_fr_v4980o1dgdh52-stroke" fill="none" stroke-linecap="round" stroke-linejoin="round" stroke-miterlimit="4" stroke="#de58a9" stroke-width="2"><g><path d="M 136.5037 112C 138.1093 108.3252 139 104.2666 139 100C 139 95.7334 138.1093 91.6748 136.5037 88L 157 88L 157 87C 157 85.8954 157.8954 85 159 85L 163 85L 163 115L 159 115C 157.8954 115 157 114.1046 157 113L 157 112L 136.5037 112ZM 81.4963 112L 61 112L 61 113C 61 114.1046 60.1046 115 59 115L 55 115L 55 85L 59 85C 60.1046 85 61 85.8954 61 87L 61 88L 81.4963 88C 79.8907 91.6748 79 95.7334 79 100C 79 104.2666 79.8907 108.3252 81.4963 112ZM 157 88L 157 112M 61 112L 61 88"></path></g></g><g id="5.g-5_fr_v4980o1dgdh52-stroke" fill="none" stroke-linecap="round" stroke-linejoin="round" stroke-miterlimit="4" stroke="#de58a9" stroke-width="2"><g><path d="M 10 70L 10 66C 10 64.8954 10.8954 64 12 64L 13 64L 13 46L 12 46C 10.8954 46 10 45.1046 10 44L 10 40L 40 40L 40 44C 40 45.1046 39.1046 46 38 46L 37 46L 37 64L 38 64C 39.1046 64 40 64.8954 40 66L 40 70L 10 70ZM 13 64L 37 64M 13 46L 37 46"></path></g></g><g id="5.g-5_fr_v4980o1dgdh52-stroke" fill="none" stroke-linecap="round" stroke-linejoin="round" stroke-miterlimit="4" stroke="#de58a9" stroke-width="2"><g><path d="M 178 70L 178 66C 178 64.8954 178.8954 64 180 64L 181 64L 181 16L 180 16C 178.8954 16 178 15.1046 178 14L 178 10L 208 10L 208 14C 208 15.1046 207.1046 16 206 16L 205 16L 205 64L 206 64C 207.1046 64 208 64.8954 208 66L 208 70L 178 70ZM 181 64L 205 64M 181 16L 205 16"></path></g></g><g id="5.g-5_fr_v4980o1dgdh52-stroke" fill="none" stroke-linecap="round" stroke-linejoin="round" stroke-miterlimit="4" stroke="#de58a9" stroke-width="2"><g><path d="M 13 88C 13 101.2548 23.7452 112 37 112L 49 112L 49 113C 49 114.1046 49.8954 115 51 115L 55 115L 55 85L 51 85C 49.8954 85 49 85.8954 49 87L 49 88L 41 88C 38.7909 88 37 86.2091 37 84L 37 76L 38 76C 39.1046 76 40 75.1046 40 74L 40 70L 10 70L 10.000001 74C 10.000001 75.1046 10.8954 76 12 76L 13 76L 13 88ZM 49 112L 49 88M 37 76L 13 76"></path></g></g><g id="5.g-5_fr_v4980o1dgdh52-stroke" fill="none" stroke-linecap="round" stroke-linejoin="round" stroke-miterlimit="4" stroke="#de58a9" stroke-width="2"><g><path d="M 205 88C 205 101.2548 194.2548 112 181 112L 169 112L 169 113C 169 114.1046 168.1046 115 167 115L 163 115L 163 85L 167 85C 168.1046 85 169 85.8954 169 87L 169 88L 177 88C 179.2091 88 181 86.2091 181 84L 181 76L 180 76C 178.8954 76 178 75.1046 178 74L 178 70L 208 70L 208 74C 208 75.1046 207.1046 76 206 76L 205 76L 205 88ZM 169 112L 169 88M 181 76L 205 76"></path></g></g><g id="5.g-5_fr_v4980o1dgdh52-stroke" fill="none" stroke-linecap="round" stroke-linejoin="round" stroke-miterlimit="4" stroke="#de58a9" stroke-width="2"><g><path d="M 139 100C 139 116.5685 125.5685 130 109 130C 92.4315 130 79 116.5685 79 100C 79 83.4315 92.4315 70 109 70C 125.5685 70 139 83.4315 139 100Z"></path></g></g></g><g id="g-root-4.g-4_fr_htf6qg1dgdfkd-stroke" data-item-order="-557262" transform="translate(527, 134)"><g id="4.g-4_fr_htf6qg1dgdfkd-stroke" fill="none" stroke-linecap="round" stroke-linejoin="round" stroke-miterlimit="4" stroke="#1eabda" stroke-width="2"><g><path d="M 136.5037 52C 138.1093 48.3252 139 44.2666 139 40C 139 35.7334 138.1093 31.6748 136.5037 28L 157 28L 157 27C 157 25.8954 157.8954 25 159 25L 163 25L 163 55L 159 55C 157.8954 55 157 54.1046 157 53L 157 52L 136.5037 52ZM 81.4963 52L 61 52L 61 53C 61 54.1046 60.1046 55 59 55L 55 55L 55 25L 59 25C 60.1046 25 61 25.8954 61 27L 61 28L 81.4963 28C 79.8907 31.6748 79 35.7334 79 40C 79 44.2666 79.8907 48.3252 81.4963 52ZM 157 28L 157 52M 61 52L 61 28"></path></g></g><g id="4.g-4_fr_htf6qg1dgdfkd-stroke" fill="none" stroke-linecap="round" stroke-linejoin="round" stroke-miterlimit="4" stroke="#1eabda" stroke-width="2"><g><path d="M 178 100L 178 96C 178 94.8954 178.8954 94 180 94L 181 94L 181 76L 180 76C 178.8954 76 178 75.1046 178 74L 178 70L 208 70L 208 74C 208 75.1046 207.1046 76 206 76L 205 76L 205 94L 206 94C 207.1046 94 208 94.8954 208 96L 208 100L 178 100ZM 181 94L 205 94M 181 76L 205 76"></path></g></g><g id="4.g-4_fr_htf6qg1dgdfkd-stroke" fill="none" stroke-linecap="round" stroke-linejoin="round" stroke-miterlimit="4" stroke="#1eabda" stroke-width="2"><g><path d="M 13 52C 13 38.7452 23.7452 28 37 28L 49 28L 49 27C 49 25.8954 49.8954 25 51 25L 55 25L 55 55L 51 55C 49.8954 55 49 54.1046 49 53L 49 52L 41 52C 38.7909 52 37 53.7909 37 56L 37 64L 38 64C 39.1046 64 40 64.8954 40 66L 40 70L 10 70L 10 66C 10 64.8954 10.8954 64 12 64L 13 64L 13 52ZM 49 28L 49 52M 37 64L 13 64"></path></g></g><g id="4.g-4_fr_htf6qg1dgdfkd-stroke" fill="none" stroke-linecap="round" stroke-linejoin="round" stroke-miterlimit="4" stroke="#1eabda" stroke-width="2"><g><path d="M 205 52C 205 38.7452 194.2548 28 181 28L 169 28L 169 27C 169 25.8954 168.1046 25 167 25L 163 25L 163 55L 167 55C 168.1046 55 169 54.1046 169 53L 169 52L 177 52C 179.2091 52 181 53.7909 181 56L 181 64L 180 64C 178.8954 64 178 64.8954 178 66L 178 70L 208 70L 208 66C 208 64.8954 207.1046 64 206 64L 205 64L 205 52ZM 169 28L 169 52M 181 64L 205 64"></path></g></g><g id="4.g-4_fr_htf6qg1dgdfkd-stroke" fill="none" stroke-linecap="round" stroke-linejoin="round" stroke-miterlimit="4" stroke="#1eabda" stroke-width="2"><g><path d="M 139 40C 139 56.5685 125.5685 70 109 70C 92.4315 70 79 56.5685 79 40C 79 23.4315 92.4315 10 109 10C 125.5685 10 139 23.4315 139 40Z"></path></g></g></g><g id="g-root-3.g-3_fr_8xs6hk1dgdh4z-stroke" data-item-order="-557258" transform="translate(359, 164)"><g id="3.g-3_fr_8xs6hk1dgdh4z-stroke" fill="none" stroke-linecap="round" stroke-linejoin="round" stroke-miterlimit="4" stroke="#92bd39" stroke-width="2"><g><path d="M 136.5037 82C 138.1093 78.3252 139 74.2666 139 70C 139 65.7334 138.1093 61.6748 136.5037 58L 157 58L 157 57C 157 55.8954 157.8954 55 159 55L 163 55L 163 85L 159 85C 157.8954 85 157 84.1046 157 83L 157 82L 136.5037 82ZM 81.4963 82L 61 82L 61 83C 61 84.1046 60.1046 85 59 85L 55 85L 55 55L 59 55C 60.1046 55 61 55.8954 61 57L 61 58L 81.4963 58C 79.8907 61.6748 79 65.7334 79 70C 79 74.2666 79.8907 78.3252 81.4963 82ZM 157 58L 157 82M 61 82L 61 58"></path></g></g><g id="3.g-3_fr_8xs6hk1dgdh4z-stroke" fill="none" stroke-linecap="round" stroke-linejoin="round" stroke-miterlimit="4" stroke="#92bd39" stroke-width="2"><g><path d="M 10 40L 10 36C 10 34.8954 10.8954 34 12 34L 13 34L 13 16L 12 16C 10.8954 16 10 15.1046 10 14L 10 10L 40 10L 40 14C 40 15.1046 39.1046 16 38 16L 37 16L 37 34L 38 34C 39.1046 34 40 34.8954 40 36L 40 40L 10 40ZM 13 34L 37 34M 13 16L 37 16"></path></g></g><g id="3.g-3_fr_8xs6hk1dgdh4z-stroke" fill="none" stroke-linecap="round" stroke-linejoin="round" stroke-miterlimit="4" stroke="#92bd39" stroke-width="2"><g><path d="M 205 58C 205 71.2548 194.2548 82 181 82L 169 82L 169 83C 169 84.1046 168.1046 85 167 85L 163 85L 163 55L 167 55C 168.1046 55 169 55.8954 169 57L 169 58L 177 58C 179.2091 58 181 56.2091 181 54L 181 46L 180 46C 178.8954 46 178 45.1046 178 44L 178 40L 208 40L 208 44C 208 45.1046 207.1046 46 206 46L 205 46L 205 58ZM 169 82L 169 58M 181 46L 205 46"></path></g></g><g id="3.g-3_fr_8xs6hk1dgdh4z-stroke" fill="none" stroke-linecap="round" stroke-linejoin="round" stroke-miterlimit="4" stroke="#92bd39" stroke-width="2"><g><path d="M 13 58C 13 71.2548 23.7452 82 37 82L 49 82L 49 83C 49 84.1046 49.8954 85 51 85L 55 85L 55 55L 51 55C 49.8954 55 49 55.8954 49 57L 49 58L 41 58C 38.7909 58 37 56.2091 37 54L 37 46L 38 46C 39.1046 46 40 45.1046 40 44L 40 40L 10 40L 10.000001 44C 10.000001 45.1046 10.8954 46 12 46L 13 46L 13 58ZM 49 82L 49 58M 37 46L 13 46"></path></g></g><g id="3.g-3_fr_8xs6hk1dgdh4z-stroke" fill="none" stroke-linecap="round" stroke-linejoin="round" stroke-miterlimit="4" stroke="#92bd39" stroke-width="2"><g><path d="M 139 70C 139 86.5685 125.5685 100 109 100C 92.4315 100 79 86.5685 79 70C 79 53.4315 92.4315 40 109 40C 125.5685 40 139 53.4315 139 70Z"></path></g></g></g><g id="g-root-2.g-2_fr_4il5g81dgderl-stroke" data-item-order="-557254" transform="translate(191, 74)"><g id="2.g-2_fr_4il5g81dgderl-stroke" fill="none" stroke-linecap="round" stroke-linejoin="round" stroke-miterlimit="4" stroke="#3cc583" stroke-width="2"><g><path d="M 136.5037 52C 138.1093 48.3252 139 44.2666 139 40C 139 35.7334 138.1093 31.6748 136.5037 28L 157 28L 157 27C 157 25.8954 157.8954 25 159 25L 163 25L 163 55L 159 55C 157.8954 55 157 54.1046 157 53L 157 52L 136.5037 52ZM 81.4963 52L 61 52L 61 53C 61 54.1046 60.1046 55 59 55L 55 55L 55 25L 59 25C 60.1046 25 61 25.8954 61 27L 61 28L 81.4963 28C 79.8907 31.6748 79 35.7334 79 40C 79 44.2666 79.8907 48.3252 81.4963 52ZM 157 28L 157 52M 61 52L 61 28"></path></g></g><g id="2.g-2_fr_4il5g81dgderl-stroke" fill="none" stroke-linecap="round" stroke-linejoin="round" stroke-miterlimit="4" stroke="#3cc583" stroke-width="2"><g><path d="M 178 100L 178 96C 178 94.8954 178.8954 94 180 94L 181 94L 181 76L 180 76C 178.8954 76 178 75.1046 178 74L 178 70L 208 70L 208 74C 208 75.1046 207.1046 76 206 76L 205 76L 205 94L 206 94C 207.1046 94 208 94.8954 208 96L 208 100L 178 100ZM 181 94L 205 94M 181 76L 205 76"></path></g></g><g id="2.g-2_fr_4il5g81dgderl-stroke" fill="none" stroke-linecap="round" stroke-linejoin="round" stroke-miterlimit="4" stroke="#3cc583" stroke-width="2"><g><path d="M 10 130L 10 126C 10 124.8954 10.8954 124 12 124L 13 124L 13 76L 12 76C 10.8954 76 10 75.1046 10 74L 10 70L 40 70L 40 74C 40 75.1046 39.1046 76 38 76L 37 76L 37 124L 38 124C 39.1046 124 40 124.8954 40 126L 40 130L 10 130ZM 13 124L 37 124M 13 76L 37 76"></path></g></g><g id="2.g-2_fr_4il5g81dgderl-stroke" fill="none" stroke-linecap="round" stroke-linejoin="round" stroke-miterlimit="4" stroke="#3cc583" stroke-width="2"><g><path d="M 205 52C 205 38.7452 194.2548 28 181 28L 169 28L 169 27C 169 25.8954 168.1046 25 167 25L 163 25L 163 55L 167 55C 168.1046 55 169 54.1046 169 53L 169 52L 177 52C 179.2091 52 181 53.7909 181 56L 181 64L 180 64C 178.8954 64 178 64.8954 178 66L 178 70L 208 70L 208 66C 208 64.8954 207.1046 64 206 64L 205 64L 205 52ZM 169 28L 169 52M 181 64L 205 64"></path></g></g><g id="2.g-2_fr_4il5g81dgderl-stroke" fill="none" stroke-linecap="round" stroke-linejoin="round" stroke-miterlimit="4" stroke="#3cc583" stroke-width="2"><g><path d="M 13 52C 13 38.7452 23.7452 28 37 28L 49 28L 49 27C 49 25.8954 49.8954 25 51 25L 55 25L 55 55L 51 55C 49.8954 55 49 54.1046 49 53L 49 52L 41 52C 38.7909 52 37 53.7909 37 56L 37 64L 38 64C 39.1046 64 40 64.8954 40 66L 40 70L 10 70L 10 66C 10 64.8954 10.8954 64 12 64L 13 64L 13 52ZM 49 28L 49 52M 37 64L 13 64"></path></g></g><g id="2.g-2_fr_4il5g81dgderl-stroke" fill="none" stroke-linecap="round" stroke-linejoin="round" stroke-miterlimit="4" stroke="#3cc583" stroke-width="2"><g><path d="M 139 40C 139 56.5685 125.5685 70 109 70C 92.4315 70 79 56.5685 79 40C 79 23.4315 92.4315 10 109 10C 125.5685 10 139 23.4315 139 40Z"></path></g></g></g><g id="g-root-1.g-1_fr_1q88p201dgdg5k-stroke" data-item-order="-557250" transform="translate(68, 194)"><g id="1.g-1_fr_1q88p201dgdg5k-stroke" fill="none" stroke-linecap="round" stroke-linejoin="round" stroke-miterlimit="4" stroke="#4e88e7" stroke-width="2"><g><path d="M 133 69.999999L 133 65.999999C 133 64.895399 133.8954 63.999999 135 63.999999L 136 63.999999L 136 15.999999L 135 15.999999C 133.8954 15.999999 133 15.104599 133 13.999999L 133 9.999999L 163 9.999999L 163 13.999999C 163 15.104599 162.1046 15.999999 161 15.999999L 160 15.999999L 160 63.999999L 161 63.999999C 162.1046 63.999999 163 64.895399 163 65.999999L 163 69.999999L 133 69.999999ZM 136 63.999999L 160 63.999999M 136 15.999999L 160 15.999999"></path></g></g><g id="1.g-1_fr_1q88p201dgdg5k-stroke" fill="none" stroke-linecap="round" stroke-linejoin="round" stroke-miterlimit="4" stroke="#4e88e7" stroke-width="2"><g><path d="M 91.5037 112C 93.1093 108.3252 94 104.2666 94 100C 94 95.7334 93.1093 91.6748 91.5037 88L 112 88L 112 87C 112 85.8954 112.8954 85 114 85L 118 85L 118 115L 114 115C 112.8954 115 112 114.1046 112 113L 112 112L 91.5037 112ZM 36.4963 112L 16 112L 16 113C 16 114.1046 15.1046 115 14 115L 10 115L 10 85L 14 85C 15.1046 85 16 85.8954 16 87L 16 88L 36.4963 88C 34.8907 91.6748 34 95.7334 34 100C 34 104.2666 34.8907 108.3252 36.4963 112ZM 112 88L 112 112M 16 112L 16 88"></path></g></g><g id="1.g-1_fr_1q88p201dgdg5k-stroke" fill="none" stroke-linecap="round" stroke-linejoin="round" stroke-miterlimit="4" stroke="#4e88e7" stroke-width="2"><g><path d="M 160 88.000004C 160 101.254804 149.2548 112.000004 136 112.000004L 124 112.000004L 124 113.000004C 124 114.104604 123.1046 115.000004 122 115.000004L 118 115.000004L 118 85.000004L 122 85.000004C 123.1046 85.000004 124 85.895404 124 87.000004L 124 88.000004L 132 88.000004C 134.2091 88.000004 136 86.209104 136 84.000004L 136 76.000004L 135 76.000004C 133.8954 76.000004 133 75.104604 133 74.000004L 133 70.000004L 163 70.000004L 163 74.000004C 163 75.104604 162.1046 76.000004 161 76.000004L 160 76.000004L 160 88.000004ZM 124 112.000004L 124 88.000004M 136 76.000004L 160 76.000004"></path></g></g><g id="1.g-1_fr_1q88p201dgdg5k-stroke" fill="none" stroke-linecap="round" stroke-linejoin="round" stroke-miterlimit="4" stroke="#4e88e7" stroke-width="2"><g><path d="M 94 100C 94 116.5685 80.5685 130 64 130C 47.4315 130 34 116.5685 34 100C 34 83.4315 47.4315 70 64 70C 80.5685 70 94 83.4315 94 100Z"></path></g></g></g><g id="g-root-bloc_i093a01dq8utj-stroke" data-item-order="0" transform="translate(608, 146)"><g id="bloc_i093a01dq8utj-stroke" fill="none" stroke-linecap="round" stroke-linejoin="round" stroke-miterlimit="4" stroke="#1eabda" stroke-width="2"><g><path d="M 25.7995 13.3255C 25.7995 14.540803 26.784698 15.526 28 15.526C 29.215302 15.526 30.2005 14.540803 30.2005 13.3255C 30.2005 12.110197 29.215302 11.125 28 11.125C 26.784698 11.125 25.7995 12.110197 25.7995 13.3255M 25.801001 42.6745C 25.801001 43.889805 26.786198 44.875 28.001501 44.875C 29.216803 44.875 30.202 43.889805 30.202 42.6745C 30.202 41.459198 29.216803 40.473999 28.001501 40.473999C 26.786198 40.473999 25.801001 41.459198 25.801001 42.6745M 37.536999 35.341C 37.536999 36.556305 38.522198 37.5415 39.737503 37.5415C 40.952805 37.5415 41.938 36.556305 41.938 35.341003C 41.938 34.125698 40.952805 33.140499 39.737503 33.140499C 38.522198 33.140499 37.536999 34.125698 37.536999 35.341003M 14.062 35.341C 14.062 36.556305 15.047197 37.5415 16.262501 37.5415C 17.477802 37.5415 18.463001 36.556305 18.463001 35.341003C 18.463001 34.125698 17.477802 33.140499 16.262501 33.140499C 15.047197 33.140499 14.062 34.125698 14.062 35.341003M 37.536999 20.6635C 37.536999 21.878803 38.522198 22.864 39.737503 22.864C 40.952805 22.864 41.938 21.878803 41.938 20.6635C 41.938 19.448198 40.952805 18.463001 39.737503 18.463001C 38.522198 18.463001 37.536999 19.448198 37.536999 20.6635M 14.062 20.6635C 14.062 21.878803 15.047197 22.864 16.262501 22.864C 17.477802 22.864 18.463001 21.878803 18.463001 20.6635C 18.463001 19.448198 17.477802 18.463001 16.262501 18.463001C 15.047197 18.463001 14.062 19.448198 14.062 20.6635M 25.066 28C 25.066 29.620403 26.379597 30.934 28 30.934C 29.620403 30.934 30.934 29.620403 30.934 28C 30.934 26.379597 29.620403 25.066 28 25.066C 26.379597 25.066 25.066 26.379597 25.066 28M 28 25.066L 28 19.195M 28 36.805L 28 30.934M 25.7995 21.396999L 28 19.195L 30.2005 21.396999M 25.7995 34.603001L 28 36.805L 30.2005 34.603001M 35.336502 23.5975L 30.517 26.4895M 33.136002 22.716999L 35.338001 23.5975L 35.0425 26.091999M 20.665001 23.5975L 25.483 26.4895M 22.864 22.716999L 20.6635 23.5975L 20.9575 26.091999M 35.336502 32.4025L 30.517 29.5105M 33.136002 33.281502L 35.336502 32.4025L 35.0425 29.9065M 20.6635 32.4025L 25.483 29.5105M 22.864 33.281502L 20.6635 32.4025L 20.9575 29.9065"></path></g></g></g><g id="g-root-mail_zly5eg1dgdg5q-stroke" data-item-order="0" transform="translate(944, 86)"><g id="mail_zly5eg1dgdg5q-stroke" fill="none" stroke-linecap="round" stroke-linejoin="round" stroke-miterlimit="4" stroke="#ba5de5" stroke-width="2"><g><path d="M 45.25 34L 45.25 43.75C 45.25 44.578426 44.578426 45.25 43.75 45.25L 28.75 45.25C 27.921572 45.25 27.25 44.578426 27.25 43.75L 27.25 34M 45.25 34L 45.25 33.25C 45.25 32.421574 44.578426 31.75 43.75 31.75L 28.75 31.75C 27.921572 31.75 27.25 32.421574 27.25 33.25L 27.25 34L 35.050003 38.879501C 35.77961 39.335506 36.705391 39.335506 37.435001 38.879501ZM 18.25 40.75L 22.75 40.75M 22.751501 33.25L 22.751501 40.75M 14.875 40C 14.667893 40 14.5 40.167892 14.5 40.375C 14.5 40.582108 14.667893 40.75 14.875 40.75C 15.082107 40.75 15.25 40.582108 15.25 40.375C 15.25 40.167892 15.082107 40 14.875 40L 14.875 40M 11.125 40C 10.917893 40 10.75 40.167892 10.75 40.375C 10.75 40.582108 10.917893 40.75 11.125 40.75C 11.332107 40.75 11.5 40.582108 11.5 40.375C 11.5 40.167892 11.332107 40 11.125 40L 11.125 40M 16.375 14.125C 16.167892 14.125 16 14.292893 16 14.5C 16 14.707107 16.167892 14.875 16.375 14.875C 16.582108 14.875 16.75 14.707107 16.75 14.5C 16.75 14.292893 16.582108 14.125 16.375 14.125L 16.375 14.125M 20.125 14.125C 19.917892 14.125 19.75 14.292893 19.75 14.5C 19.75 14.707107 19.917892 14.875 20.125 14.875C 20.332108 14.875 20.5 14.707107 20.5 14.5C 20.5 14.292893 20.332108 14.125 20.125 14.125L 20.125 14.125M 36.25 14.5C 36.25 12.428932 34.571068 10.75 32.5 10.75L 14.5 10.75C 12.428932 10.75 10.75 12.428932 10.75 14.5C 10.75 16.571068 12.428932 18.25 14.5 18.25L 32.5 18.25C 34.571068 18.25 36.25 16.571068 36.25 14.5ZM 16.375 21.625C 16.167892 21.625 16 21.792892 16 22C 16 22.207108 16.167892 22.375 16.375 22.375C 16.582108 22.375 16.75 22.207108 16.75 22C 16.75 21.792892 16.582108 21.625 16.375 21.625L 16.375 21.625M 20.125 21.625C 19.917892 21.625 19.75 21.792892 19.75 22C 19.75 22.207108 19.917892 22.375 20.125 22.375C 20.332108 22.375 20.5 22.207108 20.5 22C 20.5 21.792892 20.332108 21.625 20.125 21.625L 20.125 21.625M 36.25 22C 36.25 19.928932 34.571068 18.25 32.5 18.25L 14.5 18.25C 12.428932 18.25 10.75 19.928932 10.75 22C 10.75 24.071068 12.428932 25.75 14.5 25.75L 32.5 25.75C 34.571068 25.75 36.25 24.071068 36.25 22ZM 16.375 29.125C 16.167892 29.125 16 29.292892 16 29.5C 16 29.707108 16.167892 29.875 16.375 29.875C 16.582108 29.875 16.75 29.707108 16.75 29.5C 16.75 29.292892 16.582108 29.125 16.375 29.125L 16.375 29.125M 20.125 29.125C 19.917892 29.125 19.75 29.292892 19.75 29.5C 19.75 29.707108 19.917892 29.875 20.125 29.875C 20.332108 29.875 20.5 29.707108 20.5 29.5C 20.5 29.292892 20.332108 29.125 20.125 29.125L 20.125 29.125M 35.5 27.25C 34.791798 26.305729 33.68034 25.75 32.5 25.75L 14.5 25.75C 12.428932 25.75 10.75 27.428932 10.75 29.5C 10.75 31.571068 12.428932 33.25 14.5 33.25L 22.75 33.25"></path></g></g></g><g id="g-root-warn_m97dg81dqa9s1-stroke" data-item-order="0" transform="translate(272, 86)"><g id="warn_m97dg81dqa9s1-stroke" fill="none" stroke-linecap="round" stroke-linejoin="round" stroke-miterlimit="4" stroke="#3cc583" stroke-width="2"><g><path d="M 35.452599 38.400398C 35.152599 38.400398 34.8526 38.700401 34.8526 39.000397C 34.8526 39.3004 35.152599 39.600403 35.452599 39.600403M 35.450798 38.400398C 35.750801 38.400398 36.0508 38.700401 36.0508 39.000397C 36.0508 39.3004 35.750801 39.600403 35.450798 39.600403M 35.453201 35.095749L 35.453201 30.595751M 44.151852 38.998001C 44.601849 39.748001 44.451851 40.798 44.00185 41.548C 43.551849 42.298 42.651852 42.748001 41.75185 42.748001L 29.00185 42.748001C 28.101849 42.748001 27.201851 42.298 26.75185 41.548C 26.301849 40.798 26.151852 39.748001 26.601849 38.998001L 32.901852 26.247999C 33.351849 25.348 34.25185 24.748045 35.301849 24.748045C 36.351849 24.748045 37.25185 25.348 37.701851 26.247999L 44.151852 38.998001ZM 29.789349 25.680401L 13.07617 25.680401C 12.24775 25.680401 11.57617 25.00885 11.57617 24.180475L 11.57617 14.751955C 11.57617 13.92352 12.24775 13.251955 13.07617 13.251955L 41.513798 13.251955C 42.342251 13.251955 43.013798 13.92352 43.013798 14.751955L 43.013798 24.180475C 43.013798 25.00885 42.342251 25.680401 41.513798 25.680401L 41.077599 25.680401M 17.606125 20.964205C 18.434919 20.964205 19.106785 20.292339 19.106785 19.463545C 19.106785 18.634766 18.434919 17.962885 17.606125 17.962885C 16.77733 17.962885 16.105465 18.634766 16.105465 19.463545C 16.105465 20.292339 16.77733 20.964205 17.606125 20.964205ZM 23.606125 20.964205C 24.434919 20.964205 25.1068 20.292339 25.1068 19.463545C 25.1068 18.634766 24.434919 17.962885 23.606125 17.962885C 22.77733 17.962885 22.105465 18.634766 22.105465 19.463545C 22.105465 20.292339 22.77733 20.964205 23.606125 20.964205ZM 29.600201 20.964205C 30.4291 20.964205 31.10095 20.292339 31.10095 19.463545C 31.10095 18.634766 30.4291 17.962885 29.600201 17.962885C 28.77145 17.962885 28.0996 18.634766 28.0996 19.463545C 28.0996 20.292339 28.77145 20.964205 29.600201 20.964205Z"></path></g></g></g><g id="g-root-1_1lz93h41dq8veo-stroke" data-item-order="0" transform="translate(440, 206)"><g id="1_1lz93h41dq8veo-stroke" fill="none" stroke-linecap="round" stroke-linejoin="round" stroke-miterlimit="4" stroke="#92bd39" stroke-width="2"><g><path d="M 12.25 10.756L 43.75 10.756C 43.75 10.756 45.25 10.756 45.25 12.256L 45.25 43.756001C 45.25 43.756001 45.25 45.256001 43.75 45.256001L 12.25 45.256001C 12.25 45.256001 10.75 45.256001 10.75 43.756001L 10.75 12.256C 10.75 12.256 10.75 10.756 12.25 10.756M 22.75 27.2365L 19.531 27.2365C 18.245129 27.241089 17.130075 28.126644 16.834427 29.378075C 16.538776 30.629505 17.139631 31.920443 18.2875 32.5L 21.2125 33.962502C 22.365597 34.539513 22.970835 35.833469 22.674614 37.08839C 22.378391 38.343315 21.25841 39.230034 19.969 39.230503L 16.75 39.230499M 31.712502 35.468498C 31.712502 37.125351 30.369354 38.468498 28.712502 38.468498C 27.055647 38.468498 25.712502 37.125351 25.712502 35.468498L 25.712502 30.2185C 25.712502 28.561646 27.055647 27.2185 28.712502 27.2185C 30.369354 27.2185 31.712502 28.561646 31.712502 30.2185ZM 31.712502 40.718498L 27.174999 38.043999M 34.712502 27.2185L 34.712502 36.968498C 34.712502 38.211143 35.71986 39.218498 36.962502 39.218498L 40.712502 39.218498"></path></g></g></g><g id="g-root-tx_communic_1cws6oo1dgdhql-stroke" data-item-order="0" transform="translate(398, 2)"></g><g id="g-root-smar_zisgk81dqbmkq-stroke" data-item-order="0" transform="translate(104, 266)"><g id="smar_zisgk81dqbmkq-stroke" fill="none" stroke-linecap="round" stroke-linejoin="round" stroke-miterlimit="4" stroke="#4e88e7" stroke-width="2"><g><path d="M 27.618999 38.462502L 24.618999 38.462502C 22.133718 38.462502 20.118999 36.447784 20.118999 33.962502L 20.118999 30.212502M 17.118999 32.462502L 20.118999 29.462502L 23.118999 32.462502M 36.068501 27.212502L 43.568501 27.212502C 43.568501 27.212502 45.068501 27.212502 45.068501 28.712502L 45.068501 43.712502C 45.068501 43.712502 45.068501 45.212502 43.568501 45.212502L 36.068501 45.212502C 36.068501 45.212502 34.568501 45.212502 34.568501 43.712502L 34.568501 28.712502C 34.568501 28.712502 34.568501 27.212502 36.068501 27.212502M 45.068501 40.712502L 34.568501 40.712502M 28.931499 12.2875L 28.931499 22.7875C 28.931499 22.7875 28.931499 24.2875 27.431499 24.2875L 12.4315 24.2875C 12.4315 24.2875 10.9315 24.2875 10.9315 22.7875L 10.9315 12.2875C 10.9315 12.2875 10.9315 10.7875 12.4315 10.7875L 27.431499 10.7875C 27.431499 10.7875 28.931499 10.7875 28.931499 12.2875M 28.931499 15.2875L 10.9315 15.2875M 23.681499 20.5375L 25.931499 20.5375"></path></g></g></g><g id="g-root-48px_i093a01dqbll9-stroke" data-item-order="0" transform="translate(104, 326)"><g id="48px_i093a01dqbll9-stroke" fill="none" stroke-linecap="round" stroke-linejoin="round" stroke-miterlimit="4" stroke="#484848" stroke-width="2"><g><path d="M 30.881351 20.033051L 37.222675 17.637701L 37.222675 38.463249M 13.804202 25.133875C 13.804202 20.861275 15.841548 17.271431 19.758026 17.271431C 23.674599 17.271431 25.711899 20.861275 25.711899 25.133875L 25.711899 30.454525C 25.711899 34.727127 23.57905 38.411201 19.758026 38.411201C 15.937067 38.411201 13.804202 34.727127 13.804202 30.454525L 13.804202 25.133875Z"></path></g></g></g><g id="g-root-48px_1q6bye01dqd24o-stroke" data-item-order="0" transform="translate(272, 326)"><g id="48px_1q6bye01dqd24o-stroke" fill="none" stroke-linecap="round" stroke-linejoin="round" stroke-miterlimit="4" stroke="#484848" stroke-width="2"><g><path d="M 13.804202 25.133875C 13.804202 20.861275 15.841548 17.271431 19.758026 17.271431C 23.674599 17.271431 25.711899 20.861275 25.711899 25.133875L 25.711899 30.454525C 25.711899 34.727127 23.57905 38.411201 19.758026 38.411201C 15.937067 38.411201 13.804202 34.727127 13.804202 30.454525L 13.804202 25.133875ZM 30.123625 23.136551C 30.123625 19.671326 32.541924 17.271482 35.828201 17.271482C 41.279949 17.271482 43.139427 22.59145 39.565975 27.323799L 30.497499 38.063126L 42.963024 38.063126"></path></g></g></g><g id="g-root-48px_1cwqva01dqd2pv-stroke" data-item-order="0" transform="translate(440, 326)"><g id="48px_1cwqva01dqd2pv-stroke" fill="none" stroke-linecap="round" stroke-linejoin="round" stroke-miterlimit="4" stroke="#484848" stroke-width="2"><g><path d="M 13.804202 25.133875C 13.804202 20.861275 15.841548 17.271431 19.758026 17.271431C 23.674599 17.271431 25.711899 20.861275 25.711899 25.133875L 25.711899 30.454525C 25.711899 34.727127 23.57905 38.411201 19.758026 38.411201C 15.937067 38.411201 13.804202 34.727127 13.804202 30.454525L 13.804202 25.133875ZM 30.3409 22.801075C 30.251575 20.9944 31.36195 17.282455 36.298973 17.282455C 41.236 17.282455 41.992226 20.94805 41.821152 23.01775C 41.632526 25.299925 40.20385 27.630924 34.150524 27.630924C 39.785202 27.630924 42.344124 29.171501 42.344124 33.343376C 42.344124 36.9496 39.156624 38.417351 36.244148 38.417351C 34.151051 38.399502 29.964701 37.215324 29.964701 32.621651"></path></g></g></g><g id="g-root-48px_qs59081dqd0xy-stroke" data-item-order="0" transform="translate(608, 326)"><g id="48px_qs59081dqd0xy-stroke" fill="none" stroke-linecap="round" stroke-linejoin="round" stroke-miterlimit="4" stroke="#484848" stroke-width="2"><g><path d="M 13.804202 25.134251C 13.804202 20.86165 15.841548 17.271797 19.758026 17.271797C 23.674599 17.271797 25.711899 20.86165 25.711899 25.134251L 25.711899 30.454899C 25.711899 34.727501 23.57905 38.411575 19.758026 38.411575C 15.937067 38.411575 13.804202 34.727501 13.804202 30.454899L 13.804202 25.134251ZM 39.93235 38.4841L 39.93235 17.163452L 29.721176 32.303501L 43.986027 32.303501"></path></g></g></g><g id="g-root-48px_144upjs1dqd1j5-stroke" data-item-order="0" transform="translate(776, 326)"><g id="48px_144upjs1dqd1j5-stroke" fill="none" stroke-linecap="round" stroke-linejoin="round" stroke-miterlimit="4" stroke="#484848" stroke-width="2"><g><path d="M 13.804202 25.134251C 13.804202 20.86165 15.841548 17.271797 19.758026 17.271797C 23.674599 17.271797 25.711899 20.86165 25.711899 25.134251L 25.711899 30.454899C 25.711899 34.727501 23.57905 38.411575 19.758026 38.411575C 15.937067 38.411575 13.804202 34.727501 13.804202 30.454899L 13.804202 25.134251ZM 42.769974 17.59045L 32.7841 17.59045L 31.74085 27.35815C 32.362675 26.73625 34.264824 25.492451 36.898827 25.492451C 39.978325 25.492451 42.859375 27.585024 42.570248 32.539299C 42.270851 37.670349 39.183998 38.42815 36.646374 38.42815C 33.958374 38.42815 31.303751 36.520676 31.0546 32.923752"></path></g></g></g><g id="g-root-48px_4oskwo1dqd1c4-stroke" data-item-order="0" transform="translate(944.5, 326)"><g id="48px_4oskwo1dqd1c4-stroke" fill="none" stroke-linecap="round" stroke-linejoin="round" stroke-miterlimit="4" stroke="#484848" stroke-width="2"><g><path d="M 13.804202 25.134251C 13.804202 20.86165 15.841548 17.271797 19.758026 17.271797C 23.674599 17.271797 25.711899 20.86165 25.711899 25.134251L 25.711899 30.454899C 25.711899 34.727501 23.57905 38.411575 19.758026 38.411575C 15.937067 38.411575 13.804202 34.727501 13.804202 30.454899L 13.804202 25.134251ZM 40.313278 17.248413C 33.688076 17.248413 30.526676 21.536949 30.277901 28.107176L 30.277451 31.269325C 30.277451 35.417351 32.5816 38.083 36.423622 38.411648C 40.04245 38.551975 42.295074 35.710373 42.457302 31.593775C 42.560349 28.979874 41.233597 25.310875 37.160725 24.903551C 33.591549 24.5467 30.801849 26.918724 30.277901 29.48245"></path></g></g></g><g id="g-root-tx_mcpclien_18mjmxk1dqbll7-stroke" data-item-order="0" transform="translate(50, 374)"></g><g id="g-root-tx_mcpserve_v2yyfs1dqd0qu-stroke" data-item-order="0" transform="translate(218, 374)"></g><g id="g-root-tx_mcpserve_4hxcyg1dqd2wx-stroke" data-item-order="0" transform="translate(386, 374)"></g><g id="g-root-tx_snowflak_1hefsns1dqd0xw-stroke" data-item-order="0" transform="translate(554, 374)"></g><g id="g-root-tx_mcpserve_1qbbr2w1dqd1jj-stroke" data-item-order="0" transform="translate(722, 374)"></g><g id="g-root-tx_mcpserve_zqwmoo1dqd0ju-stroke" data-item-order="0" transform="translate(890, 374)"></g><g id="g-root-tx_theclien_vb34k81dqbn64-stroke" data-item-order="0" transform="translate(50, 434)"></g><g id="g-root-tx_theserve_hrig2g1dqd2br-stroke" data-item-order="0" transform="translate(218, 434)"></g><g id="g-root-tx_theserve_1q87dnc1dqd14y-stroke" data-item-order="0" transform="translate(386, 434)"></g><g id="g-root-tx_snowflak_18issew1dqd1ql-stroke" data-item-order="0" transform="translate(554, 434)"></g><g id="g-root-tx_theserve_18ko7o81dqd0qw-stroke" data-item-order="0" transform="translate(722, 434)"></g><g id="g-root-tx_theserve_mfg4bc1dqd24r-stroke" data-item-order="0" transform="translate(890, 434)"></g></g></g></svg>