<?xml version="1.0" encoding="utf-8" standalone="yes"?>
<!DOCTYPE svg PUBLIC "-//W3C//DTD SVG 1.1//EN" "http://www.w3.org/Graphics/SVG/1.1/DTD/svg11.dtd">
<svg width="770" height="530" viewBox="0 0 770 530" style="fill:none;stroke:none;fill-rule:evenodd;clip-rule:evenodd;stroke-linecap:round;stroke-linejoin:round;stroke-miterlimit:1.5;" version="1.1" xmlns="http://www.w3.org/2000/svg" xmlns:xlink="http://www.w3.org/1999/xlink"><style class="text-font-style fontImports" data-font-family="Roboto">@import url('https://fonts.googleapis.com/css2?family=Roboto:wght@400;700&amp;display=block');</style><g id="items" style="isolation: isolate"><g id="blend" style="mix-blend-mode: normal"><g id="g-root-0.g-0_fr_13z9kvs1fxylfy-fill" data-item-order="-311030" transform="translate(255, 159)"><g id="0.g-0_fr_13z9kvs1fxylfy-fill" stroke="none" fill="#f5f5f5"><g><path d="M 250 130C 250 196.274 196.274 250 130 250C 63.7258 250 10 196.274 10 130C 10 63.7258 63.7258 10 130 10C 196.274 10 250 63.7258 250 130Z"></path></g></g></g><g id="g-root-4.g-4_fr_zk2jug1fxyj2g-fill" data-item-order="-311026" transform="translate(183, 87)"><g id="4.g-4_fr_zk2jug1fxyj2g-fill" stroke="none" fill="#fffbda"><g><path d="M 94 10C 47.6081 10 10 47.6081 10 94C 10 137.183 42.5856 172.756 84.5093 177.47C 94.1869 130.879 130.879 94.1869 177.47 84.5093C 172.756 42.5856 137.183 10 94 10Z"></path></g></g></g><g id="g-root-3.g-3_fr_v491q01fxyjuq-fill" data-item-order="-311020" transform="translate(183, 303)"><g id="3.g-3_fr_v491q01fxyjuq-fill" stroke="none" fill="#f4ffdc"><g><path d="M 10 93.999097C 10 140.391297 47.6081 177.999297 94 177.999297C 137.183 177.999297 172.756 145.413297 177.47 103.489797C 130.879 93.812197 94.1869 57.119897 84.5093 10.529297C 42.5856 15.243497 10 50.815897 10 93.999097Z"></path></g></g></g><g id="g-root-2.g-2_fr_m8m1h41fxykng-fill" data-item-order="-311014" transform="translate(399, 303)"><g id="2.g-2_fr_m8m1h41fxykng-fill" stroke="none" fill="#e3fff2"><g><path d="M 94.000073 177.999297C 140.392273 177.999297 178.000273 140.391297 178.000273 93.999097C 178.000273 50.815897 145.414273 15.243597 103.490773 10.529297C 93.813173 57.119897 57.120873 93.812197 10.530273 103.489797C 15.244473 145.413297 50.816873 177.999297 94.000073 177.999297Z"></path></g></g></g><g id="g-root-1.g-1_fr_8xs06w1fxyj2m-fill" data-item-order="-311008" transform="translate(399, 87)"><g id="1.g-1_fr_8xs06w1fxyj2m-fill" stroke="none" fill="#e8f9ff"><g><path d="M 178.000212 94C 178.000212 47.6081 140.392212 10 94.000012 10C 50.816812 10 15.244412 42.5856 10.530212 84.5093C 57.120812 94.1869 93.813112 130.879 103.490712 177.47C 145.414212 172.756 178.000212 137.183 178.000212 94Z"></path></g></g></g><g id="g-root-tx_keycompo_1lsf0mw1fxyiv5-fill" data-item-order="0" transform="translate(99, 39)"><g id="tx_keycompo_1lsf0mw1fxyiv5-fill" stroke="none" fill="#484848"><g><text style="font: 20px Roboto, sans-serif; white-space: pre;" font-size="20px" font-family="Roboto, sans-serif"><tspan x="12.67" y="34" dominant-baseline="ideographic">Key Components Enhancing Snowflake-MCP Server Efficiency</tspan></text></g></g></g><g id="g-root-tx_authenti_hznraw1fy8fm7-fill" data-item-order="0" transform="translate(15, 93)"><g id="tx_authenti_hznraw1fy8fm7-fill" stroke="none" fill="#e0cb15"><g><text style="font: bold 20px Roboto, sans-serif; white-space: pre;" font-weight="bold" font-size="20px" font-family="Roboto, sans-serif"><tspan x="19.73" y="34" dominant-baseline="ideographic">Authentication </tspan><tspan x="72.31" y="58" dominant-baseline="ideographic">Manager</tspan></text></g></g></g><g id="g-root-tx_mcpserve_1q6d3i01fy9szx-fill" data-item-order="0" transform="translate(591, 99)"><g id="tx_mcpserve_1q6d3i01fy9szx-fill" stroke="none" fill="#1eabda"><g><text style="font: bold 20px Roboto, sans-serif; white-space: pre;" font-weight="bold" font-size="20px" font-family="Roboto, sans-serif"><tspan x="12" y="34" dominant-baseline="ideographic">MCP Server</tspan></text></g></g></g><g id="g-root-key_91iupk1fy8cul-fill" data-item-order="0" transform="translate(225, 129)"></g><g id="g-root-hier_8z0yd41fxyl8s-fill" data-item-order="0" transform="translate(477, 129)"></g><g id="g-root-tx_centralc_1cvj27s1fy9rf2-fill" data-item-order="0" transform="translate(591, 135)"><g id="tx_centralc_1cvj27s1fy9rf2-fill" stroke="none" fill="#484848"><g><text style="font: 15px Roboto, sans-serif; white-space: pre;" font-size="15px" font-family="Roboto, sans-serif"><tspan x="12" y="28" dominant-baseline="ideographic">Central component </tspan><tspan x="12" y="46" dominant-baseline="ideographic">managing protocol </tspan><tspan x="12" y="64" dominant-baseline="ideographic">and client </tspan><tspan x="12" y="82" dominant-baseline="ideographic">interactions</tspan></text></g></g></g><g id="g-root-tx_managesa_907w81fy8etk-fill" data-item-order="0" transform="translate(15, 153)"><g id="tx_managesa_907w81fy8etk-fill" stroke="none" fill="#484848"><g><text style="font: 15px Roboto, sans-serif; white-space: pre;" font-size="15px" font-family="Roboto, sans-serif"><tspan x="78.17" y="31" dominant-baseline="ideographic">Manages </tspan><tspan x="44.2" y="49" dominant-baseline="ideographic">authentication </tspan><tspan x="21.78" y="67" dominant-baseline="ideographic">methods securely</tspan></text></g></g></g><g id="g-root-tx_snowflak_mahgqg1fxyjnv-fill" data-item-order="0" transform="translate(315, 255)"><g id="tx_snowflak_mahgqg1fxyjnv-fill" stroke="none" fill="#969696"><g><text style="font: bold 20px Roboto, sans-serif; white-space: pre;" font-weight="bold" font-size="20px" font-family="Roboto, sans-serif"><tspan x="19.18" y="34" dominant-baseline="ideographic">Snowflake-</tspan><tspan x="16.4" y="58" dominant-baseline="ideographic">MCP Server</tspan></text></g></g></g><g id="g-root-tx_querypro_18ntq7s1fy8emh-fill" data-item-order="0" transform="translate(15, 345)"><g id="tx_querypro_18ntq7s1fy8emh-fill" stroke="none" fill="#92bd39"><g><text style="font: bold 20px Roboto, sans-serif; white-space: pre;" font-weight="bold" font-size="20px" font-family="Roboto, sans-serif"><tspan x="50.64" y="34" dominant-baseline="ideographic">Query </tspan><tspan x="12.41" y="58" dominant-baseline="ideographic">Processor</tspan></text></g></g></g><g id="g-root-tx_connecti_dbq3201fy9tz7-fill" data-item-order="0" transform="translate(591, 345)"><g id="tx_connecti_dbq3201fy9tz7-fill" stroke="none" fill="#3cc583"><g><text style="font: bold 20px Roboto, sans-serif; white-space: pre;" font-weight="bold" font-size="20px" font-family="Roboto, sans-serif"><tspan x="12" y="34" dominant-baseline="ideographic">Connection </tspan><tspan x="12" y="58" dominant-baseline="ideographic">Manager</tspan></text></g></g></g><g id="g-root-sear_dj7s3c1fy5kb0-fill" data-item-order="0" transform="translate(225, 381)"></g><g id="g-root-brid_zp2cjc1fy8f0m-fill" data-item-order="0" transform="translate(477, 381)"></g><g id="g-root-tx_executes_v303js1fy9rm2-fill" data-item-order="0" transform="translate(15, 405)"><g id="tx_executes_v303js1fy9rm2-fill" stroke="none" fill="#484848"><g><text style="font: 15px Roboto, sans-serif; white-space: pre;" font-size="15px" font-family="Roboto, sans-serif"><tspan x="26.88" y="31" dominant-baseline="ideographic">Executes and </tspan><tspan x="16.06" y="49" dominant-baseline="ideographic">processes SQL </tspan><tspan x="66.81" y="67" dominant-baseline="ideographic">queries</tspan></text></g></g></g><g id="g-root-tx_oversees_w1rs1fy9sec-fill" data-item-order="0" transform="translate(591, 405)"><g id="tx_oversees_w1rs1fy9sec-fill" stroke="none" fill="#484848"><g><text style="font: 15px Roboto, sans-serif; white-space: pre;" font-size="15px" font-family="Roboto, sans-serif"><tspan x="12" y="31" dominant-baseline="ideographic">Oversees database </tspan><tspan x="12" y="49" dominant-baseline="ideographic">connections </tspan><tspan x="12" y="67" dominant-baseline="ideographic">lifecycle</tspan></text></g></g></g><g id="g-root-0.g-0_fr_13z9kvs1fxylfy-stroke" data-item-order="-311030" transform="translate(255, 159)"><g id="0.g-0_fr_13z9kvs1fxylfy-stroke" fill="none" stroke-linecap="round" stroke-linejoin="round" stroke-miterlimit="4" stroke="#969696" stroke-width="2"><g><path d="M 250 130C 250 196.2742 196.2742 250 130 250C 63.7258 250 10 196.2742 10 130C 10 63.7258 63.7258 10 130 10C 196.2742 10 250 63.7258 250 130Z"></path></g></g></g><g id="g-root-4.g-4_fr_zk2jug1fxyj2g-stroke" data-item-order="-311026" transform="translate(183, 87)"><g id="4.g-4_fr_zk2jug1fxyj2g-stroke" fill="none" stroke-linecap="round" stroke-linejoin="round" stroke-miterlimit="4" stroke="#e0cb15" stroke-width="2"><g><path d="M 94 10C 47.6081 10 10 47.6081 10 94C 10 137.1832 42.5856 172.7555 84.5093 177.4698C 94.1869 130.8792 130.8792 94.1869 177.4698 84.5093C 172.7555 42.5856 137.1832 10 94 10ZM 93.999977 178.000466C 140.391877 178.000466 177.999977 140.392366 177.999977 94.000466C 177.999977 90.791666 177.820077 87.624966 177.469777 84.509766C 130.879177 94.187366 94.186877 130.879666 84.509277 177.470266C 87.624477 177.820566 90.791177 178.000466 93.999977 178.000466Z"></path></g></g></g><g id="g-root-3.g-3_fr_v491q01fxyjuq-stroke" data-item-order="-311020" transform="translate(183, 303)"><g id="3.g-3_fr_v491q01fxyjuq-stroke" fill="none" stroke-linecap="round" stroke-linejoin="round" stroke-miterlimit="4" stroke="#92bd39" stroke-width="2"><g><path d="M 10 93.999097C 10 140.390997 47.6081 177.999097 94 177.999097C 137.1832 177.999097 172.7555 145.413497 177.4698 103.489797C 130.8792 93.812197 94.1869 57.119897 84.5093 10.529297C 42.5856 15.243497 10 50.815897 10 93.999097ZM 178.000015 94C 178.000015 47.6081 140.391915 10 94.000015 10C 90.791215 10 87.624515 10.1799 84.509315 10.5302C 94.186915 57.1208 130.879215 93.8131 177.469815 103.4907C 177.820115 100.3755 178.000015 97.2088 178.000015 94Z"></path></g></g></g><g id="g-root-2.g-2_fr_m8m1h41fxykng-stroke" data-item-order="-311014" transform="translate(399, 303)"><g id="2.g-2_fr_m8m1h41fxykng-stroke" fill="none" stroke-linecap="round" stroke-linejoin="round" stroke-miterlimit="4" stroke="#3cc583" stroke-width="2"><g><path d="M 94.000073 177.999097C 140.391973 177.999097 178.000073 140.390997 178.000073 93.999097C 178.000073 50.815897 145.414473 15.243497 103.490773 10.529297C 93.813173 57.119897 57.120873 93.812197 10.530273 103.489797C 15.244473 145.413497 50.816873 177.999097 94.000073 177.999097ZM 94 10C 47.6081 10 10 47.6081 10 94C 10 97.2088 10.1799 100.3755 10.5302 103.4907C 57.1208 93.8131 93.8131 57.1208 103.4907 10.5302C 100.3755 10.1799 97.2088 10 94 10Z"></path></g></g></g><g id="g-root-1.g-1_fr_8xs06w1fxyj2m-stroke" data-item-order="-311008" transform="translate(399, 87)"><g id="1.g-1_fr_8xs06w1fxyj2m-stroke" fill="none" stroke-linecap="round" stroke-linejoin="round" stroke-miterlimit="4" stroke="#1eabda" stroke-width="2"><g><path d="M 178.000012 94C 178.000012 47.6081 140.391912 10 94.000012 10C 50.816812 10 15.244412 42.5856 10.530212 84.5093C 57.120812 94.1869 93.813112 130.8792 103.490712 177.4698C 145.414412 172.7555 178.000012 137.1832 178.000012 94ZM 10 94.000466C 10 140.392366 47.6081 178.000466 94 178.000466C 97.2088 178.000466 100.3755 177.820566 103.4907 177.470266C 93.8131 130.879666 57.1208 94.187366 10.5302 84.509766C 10.1799 87.624966 10 90.791666 10 94.000466Z"></path></g></g></g><g id="g-root-tx_keycompo_1lsf0mw1fxyiv5-stroke" data-item-order="0" transform="translate(99, 39)"></g><g id="g-root-tx_authenti_hznraw1fy8fm7-stroke" data-item-order="0" transform="translate(15, 93)"></g><g id="g-root-tx_mcpserve_1q6d3i01fy9szx-stroke" data-item-order="0" transform="translate(591, 99)"></g><g id="g-root-key_91iupk1fy8cul-stroke" data-item-order="0" transform="translate(225, 129)"><g id="key_91iupk1fy8cul-stroke" fill="none" stroke-linecap="round" stroke-linejoin="round" stroke-miterlimit="4" stroke="#e0cb15" stroke-width="2"><g><path d="M 42.810001 50.462002C 41.833622 51.438122 40.250832 51.437984 39.27462 50.461689C 38.298416 49.485397 38.298416 47.902603 39.27462 46.926311C 40.250832 45.95002 41.833622 45.949879 42.810001 46.925999C 43.785519 47.902821 43.785519 49.48518 42.810001 50.462002ZM 10 10M 48.096001 45.883999L 56.706001 37.293999C 56.894161 37.106426 56.999943 36.851685 57 36.585999L 57 34C 57 33.447716 56.552284 33 56 33L 53.400002 33C 53.144054 32.999924 52.89782 33.097984 52.712002 33.274002L 43.854 41.641998C 40.328316 40.148323 36.238579 41.362339 34.098885 44.53775C 31.959192 47.713158 32.369568 51.959496 35.077744 54.666393C 37.785919 57.373291 42.032452 57.78167 45.206848 55.64048C 48.381248 53.49929 49.593338 49.408978 48.098 45.883999ZM 16.5 19.5C 16.5 24.19442 20.30558 28 25 28C 29.69442 28 33.5 24.19442 33.5 19.5C 33.5 14.80558 29.69442 11 25 11C 20.30558 11 16.5 14.80558 16.5 19.5ZM 27 45L 11 45C 10.999902 39.114559 14.680733 33.857452 20.211155 31.844276C 25.741575 29.831099 31.940599 31.491751 35.723999 36"></path></g></g></g><g id="g-root-hier_8z0yd41fxyl8s-stroke" data-item-order="0" transform="translate(477, 129)"><g id="hier_8z0yd41fxyl8s-stroke" fill="none" stroke-linecap="round" stroke-linejoin="round" stroke-miterlimit="4" stroke="#1eabda" stroke-width="2"><g><path d="M 23 26.002001C 23 28.763424 27.924868 31.002001 34 31.002001C 40.075134 31.002001 45 28.763424 45 26.002001C 45 23.240578 40.075134 21.001999 34 21.001999C 27.924868 21.001999 23 23.240578 23 26.002001ZM 47 14.002C 47 15.658854 49.238575 17.002001 52 17.002001C 54.761425 17.002001 57 15.658854 57 14.002001C 57 12.345146 54.761425 11.002 52 11.002C 49.238575 11.002 47 12.345146 47 14.002001ZM 57 14L 57 20C 57 21.656 54.762001 23 52 23C 49.237999 23 47 21.658001 47 20L 47 14M 11 14.002C 11 15.658854 13.238577 17.002001 16 17.002001C 18.761425 17.002001 21 15.658854 21 14.002001C 21 12.345146 18.761425 11.002 16 11.002C 13.238577 11.002 11 12.345146 11 14.002001ZM 21 14L 21 20C 21 21.656 18.762001 23 16 23C 13.238 23 11 21.658001 11 20L 11 14M 47 48.001999C 47 49.658855 49.238575 51.002003 52 51.002003C 54.761425 51.002003 57 49.658855 57 48.002003C 57 46.345146 54.761425 45.002003 52 45.002003C 49.238575 45.002003 47 46.345146 47 48.002003ZM 57 48L 57 54C 57 55.655998 54.762001 57 52 57C 49.237999 57 47 55.655998 47 54L 47 48M 11 48.001999C 11 49.658855 13.238577 51.002003 16 51.002003C 18.761425 51.002003 21 49.658855 21 48.002003C 21 46.345146 18.761425 45.002003 16 45.002003C 13.238577 45.002003 11 46.345146 11 48.002003ZM 21 48L 21 54C 21 55.655998 18.762001 57 16 57C 13.238 57 11 55.658001 11 54L 11 48M 45 34C 45 36.762001 40.073997 39 34 39C 27.926001 39 23 36.764 23 34M 23 26L 23 42C 23 44.762001 27.926001 47 34 47C 40.073997 47 45 44.762001 45 42L 45 26M 20.618 21.156L 23.702 24.24M 47.382 21.156L 44.298 24.24M 20.709999 46.993999L 23.812 43.889999M 47.290001 46.993999L 44.188 43.889999"></path></g></g></g><g id="g-root-tx_centralc_1cvj27s1fy9rf2-stroke" data-item-order="0" transform="translate(591, 135)"></g><g id="g-root-tx_managesa_907w81fy8etk-stroke" data-item-order="0" transform="translate(15, 153)"></g><g id="g-root-tx_snowflak_mahgqg1fxyjnv-stroke" data-item-order="0" transform="translate(315, 255)"></g><g id="g-root-tx_querypro_18ntq7s1fy8emh-stroke" data-item-order="0" transform="translate(15, 345)"></g><g id="g-root-tx_connecti_dbq3201fy9tz7-stroke" data-item-order="0" transform="translate(591, 345)"></g><g id="g-root-sear_dj7s3c1fy5kb0-stroke" data-item-order="0" transform="translate(225, 381)"><g id="sear_dj7s3c1fy5kb0-stroke" fill="none" stroke-linecap="round" stroke-linejoin="round" stroke-miterlimit="4" stroke="#92bd39" stroke-width="2"><g><path d="M 35 44.057999C 35 49.060593 39.055405 53.115997 44.057999 53.115997C 49.060593 53.115997 53.115997 49.060593 53.115997 44.057999C 53.115997 39.055405 49.060593 35 44.057999 35C 39.055405 35 35 39.055405 35 44.057999ZM 57 57L 50.504002 50.504002M 19 27L 38 27M 19 33L 31 33M 19 21L 33 21M 19 39L 27 39M 19 45L 27 45M 35 57L 13 57C 11.895431 57 11 56.104568 11 55L 11 13C 11 11.895431 11.895431 11 13 11L 39.585999 11C 40.11639 11.000113 40.625015 11.210901 41 11.586L 48.414001 19C 48.789101 19.374985 48.999886 19.88361 49 20.414L 49 29"></path></g></g></g><g id="g-root-brid_zp2cjc1fy8f0m-stroke" data-item-order="0" transform="translate(477, 381)"><g id="brid_zp2cjc1fy8f0m-stroke" fill="none" stroke-linecap="round" stroke-linejoin="round" stroke-miterlimit="4" stroke="#3cc583" stroke-width="2"><g><path d="M 56.987999 22.633999C 51.417332 21.449936 47.327156 16.685707 46.999996 11C 47 17.628 40.627998 23 34 23C 27.372 23 21 17.628 21 11C 20.672398 16.703152 16.559757 21.477453 10.968 22.646M 11 33L 57 33M 23 45L 23 33M 19 33L 19 43M 45 43L 45 33.001999M 49 33L 49 43M 15.002 20.966L 15.002 33M 21.001999 11L 21.001999 33M 27.002001 20.968L 27.002001 33M 35.001999 22.959999L 35.001999 33M 41.001999 21.001999L 41.001999 33M 47 11L 47.001999 33M 53.001999 20.966L 53.001999 32.996002M 56.981998 56.776001C 51.981998 57.818001 48.862 52.818001 48.862 52.818001L 48.862 52.818001C 47.290386 55.316471 44.57085 56.860619 41.620003 56.930004C 38.693253 56.786953 36.009048 55.260334 34.389999 52.818001L 34.389999 52.818001C 32.818771 55.315887 30.100136 56.859955 27.150002 56.930004C 24.222607 56.789177 21.537462 55.262028 19.919998 52.817997L 19.92 52.818001C 19.92 52.818001 15.92 57.902 11.01 56.858002M 56.981998 49.776001C 51.981998 50.818001 48.862 45.818001 48.862 45.818001L 48.862 45.818001C 47.290386 48.316471 44.57085 49.860619 41.620003 49.93C 38.693253 49.786953 36.009048 48.260334 34.389999 45.818001L 34.389999 45.818001C 32.818771 48.315887 30.100136 49.859955 27.150002 49.93C 24.222607 49.789177 21.537462 48.262028 19.919998 45.817997L 19.92 45.818001C 19.92 45.818001 15.92 50.902 11.01 49.858002"></path></g></g></g><g id="g-root-tx_executes_v303js1fy9rm2-stroke" data-item-order="0" transform="translate(15, 405)"></g><g id="g-root-tx_oversees_w1rs1fy9sec-stroke" data-item-order="0" transform="translate(591, 405)"></g></g></g></svg>